<?xml version="1.0" encoding="UTF-8" standalone="no"?>
<!-- Created with Inkscape (http://www.inkscape.org/) -->

<svg
   xmlns:dc="http://purl.org/dc/elements/1.1/"
   xmlns:cc="http://creativecommons.org/ns#"
   xmlns:rdf="http://www.w3.org/1999/02/22-rdf-syntax-ns#"
   xmlns:svg="http://www.w3.org/2000/svg"
   xmlns="http://www.w3.org/2000/svg"
   version="1.1"
   width="792pt"
   height="612pt"
   id="svg3171">
  <defs
     id="defs3173" />
  <metadata
     id="metadata3177">
    <rdf:RDF>
      <cc:Work
         rdf:about="">
        <dc:format>image/svg+xml</dc:format>
        <dc:type
           rdf:resource="http://purl.org/dc/dcmitype/StillImage" />
        <dc:title></dc:title>
      </cc:Work>
    </rdf:RDF>
  </metadata>
  <g
     id="layer1">
    <g
       transform="translate(-29.673389,-330.43324)"
       id="g4351">
      <rect
         width="324.13525"
         height="9.5457706"
         x="397.66043"
         y="413.70782"
         id="rect3839"
         style="fill:#000000;fill-opacity:1" />
      <path
         d="m 383.13829,427.45322 c 0,0 5.20065,-9.16549 20.0994,-2.63898 3.83896,1.68169 -0.31405,10.55592 -0.31405,10.55592 0,0 -7.09707,16.54241 -26.38046,12.31524 -16.93895,-3.71323 -30.7772,-28.73556 -30.7772,-28.73556 l 0,0"
         id="path3898"
         style="fill:none;stroke:#000000;stroke-width:5.0980916;stroke-linecap:square;stroke-linejoin:miter;stroke-miterlimit:4;stroke-opacity:1;stroke-dasharray:none" />
      <path
         d="m 382.74431,409.11852 c 0,0 9.10754,11.14236 19.47129,5.27796 5.31756,-3.00898 0.94216,-13.48812 0.94216,-13.48812 0,0 -6.7613,-14.70451 -26.38045,-12.31525 -14.44644,1.75932 -30.7772,28.73557 -30.7772,28.73557 l 0,0"
         id="path3898-5"
         style="fill:none;stroke:#000000;stroke-width:5.0980916;stroke-linecap:square;stroke-linejoin:miter;stroke-miterlimit:4;stroke-opacity:1;stroke-dasharray:none" />
      <path
         d="m 405,-223.40552 a 7.5,7.5 0 1 1 -15,0 7.5,7.5 0 1 1 15,0 z"
         transform="matrix(1.444644,0,0,1.4856483,-230.83144,749.41018)"
         id="path3918"
         style="fill:#000000;fill-opacity:1;stroke-width:3.4000001;stroke-linecap:square;stroke-linejoin:miter;stroke-miterlimit:4;stroke-dasharray:none" />
      <path
         d="m 420,-223.40552 a 7.5,7.5 0 1 1 -15,0 7.5,7.5 0 1 1 15,0 z"
         transform="matrix(1.5828283,0,0,1.2510723,-292.01337,687.59717)"
         id="path3924"
         style="fill:#000000;fill-opacity:1;stroke-width:3.4000001;stroke-linecap:square;stroke-linejoin:miter;stroke-miterlimit:4;stroke-dasharray:none" />
      <path
         d="m 420,-223.40552 a 7.5,7.5 0 1 1 -15,0 7.5,7.5 0 1 1 15,0 z"
         transform="matrix(1.5828284,0,0,1.2119763,-292.07618,696.45603)"
         id="path3924-9"
         style="fill:#000000;fill-opacity:1;stroke-width:3.4000001;stroke-linecap:square;stroke-linejoin:miter;stroke-miterlimit:4;stroke-dasharray:none" />
      <path
         d="m 420,-223.40552 a 7.5,7.5 0 1 1 -15,0 7.5,7.5 0 1 1 15,0 z"
         transform="matrix(2.1062502,0,0,1.3292643,-496.83877,714.68328)"
         id="path3924-9-6"
         style="fill:#000000;fill-opacity:1;stroke-width:3.4000001;stroke-linecap:square;stroke-linejoin:miter;stroke-miterlimit:4;stroke-dasharray:none" />
      <path
         d="m 398.2143,-248.22694 a 5.8928571,9.1071424 0 1 1 -11.78572,0 5.8928571,9.1071424 0 1 1 11.78572,0 z"
         transform="matrix(0.75436333,0.42189827,-0.45187373,0.70432196,-59.308,413.45418)"
         id="path4018"
         style="fill:#000000;fill-opacity:1;stroke-width:3.4000001;stroke-linecap:square;stroke-linejoin:miter;stroke-miterlimit:4;stroke-dasharray:none" />
      <path
         d="m 398.2143,-248.22694 a 5.8928571,9.1071424 0 1 1 -11.78572,0 5.8928571,9.1071424 0 1 1 11.78572,0 z"
         transform="matrix(0.74965499,-0.42915176,0.45964257,0.69992595,166.88647,771.78763)"
         id="path4018-2"
         style="fill:#000000;fill-opacity:1;stroke-width:3.4000001;stroke-linecap:square;stroke-linejoin:miter;stroke-miterlimit:4;stroke-dasharray:none" />
      <path
         d="m 414.28571,-247.15552 a 3.0357144,4.8214288 0 1 1 -6.07142,0 3.0357144,4.8214288 0 1 1 6.07142,0 z"
         transform="matrix(0.55935217,0.63350265,-0.67851238,0.52224704,-40.816955,265.94644)"
         id="path4038"
         style="fill:#000000;fill-opacity:1;stroke-width:3.4000001;stroke-linecap:square;stroke-linejoin:miter;stroke-miterlimit:4;stroke-dasharray:none" />
      <path
         d="m 414.28571,-247.15552 a 3.0357144,4.8214288 0 1 1 -6.07142,0 3.0357144,4.8214288 0 1 1 6.07142,0 z"
         transform="matrix(0.4816119,-0.68692801,0.73573356,0.44966374,338.02313,830.06177)"
         id="path4038-9"
         style="fill:#000000;fill-opacity:1;stroke-width:3.4000001;stroke-linecap:square;stroke-linejoin:miter;stroke-miterlimit:4;stroke-dasharray:none" />
      <path
         d="m 420,-223.40552 a 7.5,7.5 0 1 1 -15,0 7.5,7.5 0 1 1 15,0 z"
         transform="matrix(1.5828283,0,0,1.2510723,-290.3803,685.95514)"
         id="path4106"
         style="fill:#000000;fill-opacity:1;stroke-width:3.4000001;stroke-linecap:square;stroke-linejoin:miter;stroke-miterlimit:4;stroke-dasharray:none" />
      <path
         d="m 420,-223.40552 a 7.5,7.5 0 1 1 -15,0 7.5,7.5 0 1 1 15,0 z"
         transform="matrix(1.5828283,0,0,1.2510723,-290.81994,706.65645)"
         id="path4106-7"
         style="fill:#000000;fill-opacity:1;stroke-width:3.4000001;stroke-linecap:square;stroke-linejoin:miter;stroke-miterlimit:4;stroke-dasharray:none" />
      <path
         d="m 420,-223.40552 a 7.5,7.5 0 1 1 -15,0 7.5,7.5 0 1 1 15,0 z"
         transform="matrix(2.3156188,0,0,1.6029363,-584.61661,776.05771)"
         id="path3924-9-6-3"
         style="fill:#000000;fill-opacity:1;stroke-width:3.4000001;stroke-linecap:square;stroke-linejoin:miter;stroke-miterlimit:4;stroke-dasharray:none" />
      <path
         d="m 398.00698,409.66781 0,18.56407 19.25491,-9.65332 z"
         id="path4161"
         style="fill:#000000;fill-opacity:1;stroke:#000000;stroke-width:1.0587548px;stroke-linecap:butt;stroke-linejoin:miter;stroke-opacity:1" />
      <path
         d="m 418.35138,426.89851 -0.0205,-15.65545 -21.78077,8.15469 z"
         id="path4161-3"
         style="fill:#000000;fill-opacity:1;stroke:#000000;stroke-width:1.03434205px;stroke-linecap:butt;stroke-linejoin:miter;stroke-opacity:1" />
      <path
         d="m 426.38639,426.19113 -0.0205,-15.65546 -21.78077,8.1547 z"
         id="path4161-3-3"
         style="fill:#000000;fill-opacity:1;stroke:#000000;stroke-width:1.03434205px;stroke-linecap:butt;stroke-linejoin:miter;stroke-opacity:1" />
      <path
         d="m 420,-223.40552 a 7.5,7.5 0 1 1 -15,0 7.5,7.5 0 1 1 15,0 z"
         transform="matrix(1.164091,0,0,0.97740015,-118.16344,626.75843)"
         id="path3924-9-6-8"
         style="fill:#aa0000;fill-opacity:1;stroke-width:3.4000001;stroke-linecap:square;stroke-linejoin:miter;stroke-miterlimit:4;stroke-dasharray:none" />
      <path
         d="m 420,-223.40552 a 7.5,7.5 0 1 1 -15,0 7.5,7.5 0 1 1 15,0 z"
         transform="matrix(1.706881,0.06833843,-0.05023101,1.093683,-343.80646,633.80261)"
         id="path3924-9-6-8-6"
         style="fill:#aa0000;fill-opacity:1;stroke-width:3.4000001;stroke-linecap:square;stroke-linejoin:miter;stroke-miterlimit:4;stroke-dasharray:none" />
      <path
         d="m 420,-223.40552 a 7.5,7.5 0 1 1 -15,0 7.5,7.5 0 1 1 15,0 z"
         transform="matrix(1.164091,0,0,0.97740015,-118.59326,643.34675)"
         id="path3924-9-6-8-2"
         style="fill:#aa0000;fill-opacity:1;stroke-width:3.4000001;stroke-linecap:square;stroke-linejoin:miter;stroke-miterlimit:4;stroke-dasharray:none" />
      <path
         d="m 351.77763,410.99437 -0.17048,10.56358 6.59438,-3.83811 3.77367,-1.07334 -3.83064,-1.03237 z"
         id="path4076"
         style="fill:#000000;fill-opacity:1;stroke:#000000;stroke-width:1.02478576;stroke-linecap:round;stroke-linejoin:round;stroke-miterlimit:4;stroke-opacity:1;stroke-dasharray:none" />
      <text
         x="661.50507"
         y="439.98547"
         id="text4305"
         xml:space="preserve"
         style="font-size:40px;font-style:normal;font-weight:normal;line-height:125%;letter-spacing:0px;word-spacing:0px;fill:#000000;fill-opacity:1;stroke:none;font-family:Sans"><tspan
           x="661.50507"
           y="439.98547"
           id="tspan4307"
           style="font-size:30px;font-style:normal;font-variant:normal;font-weight:bold;font-stretch:normal;font-family:Courier 10 Pitch;-inkscape-font-specification:Courier 10 Pitch Bold">INC</tspan></text>
      <path
         d="m 384.50714,407.33618 c 0,0 9.10754,11.14236 19.47129,5.27796 5.31756,-3.00898 0.94216,-13.48812 0.94216,-13.48812 0,0 -6.7613,-14.70451 -26.38045,-12.31525 -14.44644,1.75932 -34.15626,20.71029 -34.15626,20.71029 l 2.5343,2.5343"
         id="path3898-5-2"
         style="fill:none;stroke:#000000;stroke-width:5.0980916;stroke-linecap:square;stroke-linejoin:miter;stroke-miterlimit:4;stroke-opacity:1;stroke-dasharray:none" />
      <path
         d="m 385.01045,429.0503 c 0,0 5.20065,-9.16549 20.0994,-2.63898 3.83896,1.68169 -0.31405,10.55592 -0.31405,10.55592 0,0 -7.09707,16.54241 -26.38046,12.31524 -16.93895,-3.71323 -35.42342,-24.08934 -35.42342,-24.08934 l -0.84477,-2.11192"
         id="path3898-6"
         style="fill:none;stroke:#000000;stroke-width:5.0980916;stroke-linecap:square;stroke-linejoin:miter;stroke-miterlimit:4;stroke-opacity:1;stroke-dasharray:none" />
      <path
         d="m 365.36147,89.189323 c 0,0 4.9945,1.727545 8.65886,8.447665 0.45652,0.837218 7.18051,2.323107 7.18051,2.323107 l 3.80145,-4.223832 5.2798,5.490977 6.75812,2.95669 0.42239,-4.223835 5.27979,2.956685 c 0,0 -1.47835,-7.391709 -2.11192,-9.503625 -0.42238,-1.900724 -4.01264,-5.068598 -4.01264,-5.068598 0,0 -2.11191,-2.323108 -4.8574,-3.590258 -3.16787,-1.26715 -8.02529,-1.900724 -8.02529,-1.900724 l -5.91337,0.211192 -6.12455,1.478341 -2.95668,1.900725 z"
         transform="translate(0,308.2677)"
         id="path3266"
         style="fill:#aa0000;fill-opacity:1;stroke:#000000;stroke-width:1px;stroke-linecap:butt;stroke-linejoin:miter;stroke-opacity:1" />
      <path
         d="m 362.28269,437.14051 c 0,0 5.59636,-1.12527 10.30906,-7.36108 0.58714,-0.77689 8.02794,-1.45848 8.02794,-1.45848 l 4.57054,4.58279 c 0,0 3.54779,-4.06114 5.02613,-5.1171 3.80145,-1.05596 7.30157,-1.77093 7.30157,-1.77093 l -0.35872,3.37768 6.25303,-2.7336 c 0,0 -1.57736,8.42705 -2.4979,10.44785 -0.66853,1.83614 -4.90576,4.55609 -4.90576,4.55609 0,0 -2.54363,2.05606 -5.6553,2.98965 -3.56869,0.88383 -8.89501,0.93978 -8.89501,0.93978 l -6.37488,-0.90671 -6.46237,-2.18891 -2.98767,-2.23454 z"
         id="path3266-7"
         style="fill:#aa0000;fill-opacity:1;stroke:#000000;stroke-width:1.04245818px;stroke-linecap:butt;stroke-linejoin:miter;stroke-opacity:1" />
      <text
         x="338.48218"
         y="444.36383"
         id="text5295"
         xml:space="preserve"
         style="font-size:40px;font-style:normal;font-weight:normal;line-height:125%;letter-spacing:0px;word-spacing:0px;fill:#000000;fill-opacity:1;stroke:none;font-family:Sans"><tspan
           x="338.48218"
           y="444.36383"
           id="tspan5297"
           style="font-size:8px">TM</tspan></text>
    </g>
  </g>
</svg>
